<svg width="170" height="40" viewBox="0 0 170 40" fill="none" xmlns="http://www.w3.org/2000/svg">
<rect width="5" height="40" fill="#125EFF"/>
<path d="M21.1641 26V14.5469H29.6562V16.4844H23.4766V19.0234H29.2266V20.9531H23.4766V24.0703H29.875V26H21.1641ZM39.4297 26H37.3906V24.7812C37.0521 25.2552 36.651 25.6094 36.1875 25.8438C35.7292 26.0729 35.2656 26.1875 34.7969 26.1875C33.8438 26.1875 33.026 25.8047 32.3438 25.0391C31.6667 24.2682 31.3281 23.1953 31.3281 21.8203C31.3281 20.4141 31.6589 19.3464 32.3203 18.6172C32.9818 17.8828 33.8177 17.5156 34.8281 17.5156C35.7552 17.5156 36.5573 17.901 37.2344 18.6719V14.5469H39.4297V26ZM33.5703 21.6719C33.5703 22.5573 33.6927 23.1979 33.9375 23.5938C34.2917 24.1667 34.7865 24.4531 35.4219 24.4531C35.9271 24.4531 36.3568 24.2396 36.7109 23.8125C37.0651 23.3802 37.2422 22.737 37.2422 21.8828C37.2422 20.9297 37.0703 20.2448 36.7266 19.8281C36.3828 19.4062 35.9427 19.1953 35.4062 19.1953C34.8854 19.1953 34.4479 19.4036 34.0938 19.8203C33.7448 20.2318 33.5703 20.849 33.5703 21.6719ZM47.0625 26V24.7578C46.7604 25.2005 46.362 25.5495 45.8672 25.8047C45.3776 26.0599 44.8594 26.1875 44.3125 26.1875C43.7552 26.1875 43.2552 26.0651 42.8125 25.8203C42.3698 25.5755 42.0495 25.2318 41.8516 24.7891C41.6536 24.3464 41.5547 23.7344 41.5547 22.9531V17.7031H43.75V21.5156C43.75 22.6823 43.7891 23.3984 43.8672 23.6641C43.9505 23.9245 44.099 24.1328 44.3125 24.2891C44.526 24.4401 44.7969 24.5156 45.125 24.5156C45.5 24.5156 45.8359 24.4141 46.1328 24.2109C46.4297 24.0026 46.6328 23.7474 46.7422 23.4453C46.8516 23.138 46.9062 22.3906 46.9062 21.2031V17.7031H49.1016V26H47.0625ZM58.6172 20.1562L56.4531 20.5469C56.3802 20.1146 56.2135 19.7891 55.9531 19.5703C55.6979 19.3516 55.3646 19.2422 54.9531 19.2422C54.4062 19.2422 53.9688 19.4323 53.6406 19.8125C53.3177 20.1875 53.1562 20.8177 53.1562 21.7031C53.1562 22.6875 53.3203 23.3828 53.6484 23.7891C53.9818 24.1953 54.4271 24.3984 54.9844 24.3984C55.401 24.3984 55.7422 24.2812 56.0078 24.0469C56.2734 23.8073 56.4609 23.3984 56.5703 22.8203L58.7266 23.1875C58.5026 24.1771 58.0729 24.9245 57.4375 25.4297C56.8021 25.9349 55.9505 26.1875 54.8828 26.1875C53.6693 26.1875 52.7005 25.8047 51.9766 25.0391C51.2578 24.2734 50.8984 23.2135 50.8984 21.8594C50.8984 20.4896 51.2604 19.4245 51.9844 18.6641C52.7083 17.8984 53.6875 17.5156 54.9219 17.5156C55.9323 17.5156 56.7344 17.7344 57.3281 18.1719C57.9271 18.6042 58.3568 19.2656 58.6172 20.1562ZM61.9297 20.2344L59.9375 19.875C60.1615 19.0729 60.5469 18.4792 61.0938 18.0938C61.6406 17.7083 62.4531 17.5156 63.5312 17.5156C64.5104 17.5156 65.2396 17.6328 65.7188 17.8672C66.1979 18.0964 66.5339 18.3906 66.7266 18.75C66.9245 19.1042 67.0234 19.7578 67.0234 20.7109L67 23.2734C67 24.0026 67.0339 24.5417 67.1016 24.8906C67.1745 25.2344 67.3073 25.6042 67.5 26H65.3281C65.2708 25.8542 65.2005 25.638 65.1172 25.3516C65.0807 25.2214 65.0547 25.1354 65.0391 25.0938C64.6641 25.4583 64.263 25.7318 63.8359 25.9141C63.4089 26.0964 62.9531 26.1875 62.4688 26.1875C61.6146 26.1875 60.9401 25.9557 60.4453 25.4922C59.9557 25.0286 59.7109 24.4427 59.7109 23.7344C59.7109 23.2656 59.8229 22.849 60.0469 22.4844C60.2708 22.1146 60.5833 21.8333 60.9844 21.6406C61.3906 21.4427 61.974 21.2708 62.7344 21.125C63.7604 20.9323 64.4714 20.7526 64.8672 20.5859V20.3672C64.8672 19.9453 64.763 19.6458 64.5547 19.4688C64.3464 19.2865 63.9531 19.1953 63.375 19.1953C62.9844 19.1953 62.6797 19.2734 62.4609 19.4297C62.2422 19.5807 62.0651 19.849 61.9297 20.2344ZM64.8672 22.0156C64.5859 22.1094 64.1406 22.2214 63.5312 22.3516C62.9219 22.4818 62.5234 22.6094 62.3359 22.7344C62.0495 22.9375 61.9062 23.1953 61.9062 23.5078C61.9062 23.8151 62.0208 24.0807 62.25 24.3047C62.4792 24.5286 62.7708 24.6406 63.125 24.6406C63.5208 24.6406 63.8984 24.5104 64.2578 24.25C64.5234 24.0521 64.6979 23.8099 64.7812 23.5234C64.8385 23.3359 64.8672 22.9792 64.8672 22.4531V22.0156ZM73 17.7031V19.4531H71.5V22.7969C71.5 23.474 71.513 23.8698 71.5391 23.9844C71.5703 24.0938 71.6354 24.1849 71.7344 24.2578C71.8385 24.3307 71.9635 24.3672 72.1094 24.3672C72.3125 24.3672 72.6068 24.2969 72.9922 24.1562L73.1797 25.8594C72.6693 26.0781 72.0911 26.1875 71.4453 26.1875C71.0495 26.1875 70.6927 26.1224 70.375 25.9922C70.0573 25.8568 69.8229 25.6849 69.6719 25.4766C69.526 25.263 69.4245 24.9766 69.3672 24.6172C69.3203 24.362 69.2969 23.8464 69.2969 23.0703V19.4531H68.2891V17.7031H69.2969V16.0547L71.5 14.7734V17.7031H73ZM74.5234 16.5781V14.5469H76.7188V16.5781H74.5234ZM74.5234 26V17.7031H76.7188V26H74.5234ZM78.4688 21.7344C78.4688 21.0052 78.6484 20.2995 79.0078 19.6172C79.3672 18.9349 79.875 18.4141 80.5312 18.0547C81.1927 17.6953 81.9297 17.5156 82.7422 17.5156C83.9974 17.5156 85.026 17.9245 85.8281 18.7422C86.6302 19.5547 87.0312 20.5833 87.0312 21.8281C87.0312 23.0833 86.625 24.125 85.8125 24.9531C85.0052 25.776 83.987 26.1875 82.7578 26.1875C81.9974 26.1875 81.2708 26.0156 80.5781 25.6719C79.8906 25.3281 79.3672 24.8255 79.0078 24.1641C78.6484 23.4974 78.4688 22.6875 78.4688 21.7344ZM80.7188 21.8516C80.7188 22.6745 80.9141 23.3047 81.3047 23.7422C81.6953 24.1797 82.1771 24.3984 82.75 24.3984C83.3229 24.3984 83.8021 24.1797 84.1875 23.7422C84.5781 23.3047 84.7734 22.6693 84.7734 21.8359C84.7734 21.0234 84.5781 20.3984 84.1875 19.9609C83.8021 19.5234 83.3229 19.3047 82.75 19.3047C82.1771 19.3047 81.6953 19.5234 81.3047 19.9609C80.9141 20.3984 80.7188 21.0286 80.7188 21.8516ZM96.3047 26H94.1094V21.7656C94.1094 20.8698 94.0625 20.2917 93.9688 20.0312C93.875 19.7656 93.7214 19.5599 93.5078 19.4141C93.2995 19.2682 93.0469 19.1953 92.75 19.1953C92.3698 19.1953 92.0286 19.2995 91.7266 19.5078C91.4245 19.7161 91.2161 19.9922 91.1016 20.3359C90.9922 20.6797 90.9375 21.3151 90.9375 22.2422V26H88.7422V17.7031H90.7812V18.9219C91.5052 17.9844 92.4167 17.5156 93.5156 17.5156C94 17.5156 94.4427 17.6042 94.8438 17.7812C95.2448 17.9531 95.5469 18.1745 95.75 18.4453C95.9583 18.7161 96.1016 19.0234 96.1797 19.3672C96.263 19.7109 96.3047 20.2031 96.3047 20.8438V26Z" fill="#125EFF"/>
</svg>
