<svg width="345" height="40" viewBox="0 0 345 40" fill="none" xmlns="http://www.w3.org/2000/svg">
<rect width="5" height="40" fill="#125EFF"/>
<path d="M21.1641 26V14.5469H29.6562V16.4844H23.4766V19.0234H29.2266V20.9531H23.4766V24.0703H29.875V26H21.1641ZM30.7656 26L33.7578 21.7266L30.8906 17.7031H33.5703L35.0391 19.9844L36.5859 17.7031H39.1641L36.3516 21.6328L39.4219 26H36.7266L35.0391 23.4297L33.3359 26H30.7656ZM40.6641 17.7031H42.7109V18.9219C42.9766 18.5052 43.3359 18.1667 43.7891 17.9062C44.2422 17.6458 44.7448 17.5156 45.2969 17.5156C46.2604 17.5156 47.0781 17.8932 47.75 18.6484C48.4219 19.4036 48.7578 20.4557 48.7578 21.8047C48.7578 23.1901 48.4193 24.2682 47.7422 25.0391C47.0651 25.8047 46.2448 26.1875 45.2812 26.1875C44.8229 26.1875 44.4062 26.0964 44.0312 25.9141C43.6615 25.7318 43.2708 25.4193 42.8594 24.9766V29.1562H40.6641V17.7031ZM42.8359 21.7109C42.8359 22.6432 43.0208 23.3333 43.3906 23.7812C43.7604 24.224 44.2109 24.4453 44.7422 24.4453C45.2526 24.4453 45.6771 24.2422 46.0156 23.8359C46.3542 23.4245 46.5234 22.7526 46.5234 21.8203C46.5234 20.9505 46.349 20.3047 46 19.8828C45.651 19.4609 45.2188 19.25 44.7031 19.25C44.1667 19.25 43.7214 19.4583 43.3672 19.875C43.013 20.2865 42.8359 20.8984 42.8359 21.7109ZM55.3125 23.3594L57.5 23.7266C57.2188 24.5286 56.7734 25.1406 56.1641 25.5625C55.5599 25.9792 54.8021 26.1875 53.8906 26.1875C52.4479 26.1875 51.3802 25.7161 50.6875 24.7734C50.1406 24.0182 49.8672 23.0651 49.8672 21.9141C49.8672 20.5391 50.2266 19.4635 50.9453 18.6875C51.6641 17.9062 52.5729 17.5156 53.6719 17.5156C54.9062 17.5156 55.8802 17.9245 56.5938 18.7422C57.3073 19.5547 57.6484 20.8021 57.6172 22.4844H52.1172C52.1328 23.1354 52.3099 23.6432 52.6484 24.0078C52.987 24.3672 53.4089 24.5469 53.9141 24.5469C54.2578 24.5469 54.5469 24.4531 54.7812 24.2656C55.0156 24.0781 55.1927 23.776 55.3125 23.3594ZM55.4375 21.1406C55.4219 20.5052 55.2578 20.0234 54.9453 19.6953C54.6328 19.362 54.2526 19.1953 53.8047 19.1953C53.3255 19.1953 52.9297 19.3698 52.6172 19.7188C52.3047 20.0677 52.151 20.5417 52.1562 21.1406H55.4375ZM61.5156 26H59.3203V17.7031H61.3594V18.8828C61.7083 18.3255 62.0208 17.9583 62.2969 17.7812C62.5781 17.6042 62.8958 17.5156 63.25 17.5156C63.75 17.5156 64.2318 17.6536 64.6953 17.9297L64.0156 19.8438C63.6458 19.6042 63.3021 19.4844 62.9844 19.4844C62.6771 19.4844 62.4167 19.5703 62.2031 19.7422C61.9896 19.9089 61.8203 20.2135 61.6953 20.6562C61.5755 21.099 61.5156 22.026 61.5156 23.4375V26ZM65.6484 16.5781V14.5469H67.8438V16.5781H65.6484ZM65.6484 26V17.7031H67.8438V26H65.6484ZM74.9062 23.3594L77.0938 23.7266C76.8125 24.5286 76.3672 25.1406 75.7578 25.5625C75.1536 25.9792 74.3958 26.1875 73.4844 26.1875C72.0417 26.1875 70.974 25.7161 70.2812 24.7734C69.7344 24.0182 69.4609 23.0651 69.4609 21.9141C69.4609 20.5391 69.8203 19.4635 70.5391 18.6875C71.2578 17.9062 72.1667 17.5156 73.2656 17.5156C74.5 17.5156 75.474 17.9245 76.1875 18.7422C76.901 19.5547 77.2422 20.8021 77.2109 22.4844H71.7109C71.7266 23.1354 71.9036 23.6432 72.2422 24.0078C72.5807 24.3672 73.0026 24.5469 73.5078 24.5469C73.8516 24.5469 74.1406 24.4531 74.375 24.2656C74.6094 24.0781 74.7865 23.776 74.9062 23.3594ZM75.0312 21.1406C75.0156 20.5052 74.8516 20.0234 74.5391 19.6953C74.2266 19.362 73.8464 19.1953 73.3984 19.1953C72.9193 19.1953 72.5234 19.3698 72.2109 19.7188C71.8984 20.0677 71.7448 20.5417 71.75 21.1406H75.0312ZM86.5547 26H84.3594V21.7656C84.3594 20.8698 84.3125 20.2917 84.2188 20.0312C84.125 19.7656 83.9714 19.5599 83.7578 19.4141C83.5495 19.2682 83.2969 19.1953 83 19.1953C82.6198 19.1953 82.2786 19.2995 81.9766 19.5078C81.6745 19.7161 81.4661 19.9922 81.3516 20.3359C81.2422 20.6797 81.1875 21.3151 81.1875 22.2422V26H78.9922V17.7031H81.0312V18.9219C81.7552 17.9844 82.6667 17.5156 83.7656 17.5156C84.25 17.5156 84.6927 17.6042 85.0938 17.7812C85.4948 17.9531 85.7969 18.1745 86 18.4453C86.2083 18.7161 86.3516 19.0234 86.4297 19.3672C86.513 19.7109 86.5547 20.2031 86.5547 20.8438V26ZM96.0234 20.1562L93.8594 20.5469C93.7865 20.1146 93.6198 19.7891 93.3594 19.5703C93.1042 19.3516 92.7708 19.2422 92.3594 19.2422C91.8125 19.2422 91.375 19.4323 91.0469 19.8125C90.724 20.1875 90.5625 20.8177 90.5625 21.7031C90.5625 22.6875 90.7266 23.3828 91.0547 23.7891C91.388 24.1953 91.8333 24.3984 92.3906 24.3984C92.8073 24.3984 93.1484 24.2812 93.4141 24.0469C93.6797 23.8073 93.8672 23.3984 93.9766 22.8203L96.1328 23.1875C95.9089 24.1771 95.4792 24.9245 94.8438 25.4297C94.2083 25.9349 93.3568 26.1875 92.2891 26.1875C91.0755 26.1875 90.1068 25.8047 89.3828 25.0391C88.6641 24.2734 88.3047 23.2135 88.3047 21.8594C88.3047 20.4896 88.6667 19.4245 89.3906 18.6641C90.1146 17.8984 91.0938 17.5156 92.3281 17.5156C93.3385 17.5156 94.1406 17.7344 94.7344 18.1719C95.3333 18.6042 95.763 19.2656 96.0234 20.1562ZM102.5 23.3594L104.688 23.7266C104.406 24.5286 103.961 25.1406 103.352 25.5625C102.747 25.9792 101.99 26.1875 101.078 26.1875C99.6354 26.1875 98.5677 25.7161 97.875 24.7734C97.3281 24.0182 97.0547 23.0651 97.0547 21.9141C97.0547 20.5391 97.4141 19.4635 98.1328 18.6875C98.8516 17.9062 99.7604 17.5156 100.859 17.5156C102.094 17.5156 103.068 17.9245 103.781 18.7422C104.495 19.5547 104.836 20.8021 104.805 22.4844H99.3047C99.3203 23.1354 99.4974 23.6432 99.8359 24.0078C100.174 24.3672 100.596 24.5469 101.102 24.5469C101.445 24.5469 101.734 24.4531 101.969 24.2656C102.203 24.0781 102.38 23.776 102.5 23.3594ZM102.625 21.1406C102.609 20.5052 102.445 20.0234 102.133 19.6953C101.82 19.362 101.44 19.1953 100.992 19.1953C100.513 19.1953 100.117 19.3698 99.8047 19.7188C99.4922 20.0677 99.3385 20.5417 99.3438 21.1406H102.625Z" fill="#125EFF"/>
</svg>
