<svg width="20" height="20" viewBox="0 0 20 20" fill="none" xmlns="http://www.w3.org/2000/svg">
<rect width="20" height="20" rx="10" fill="white"/>
<path d="M13.525 9.0125C13.4665 8.40371 13.2514 7.82045 12.9005 7.3195C12.5496 6.81856 12.0751 6.41701 11.5229 6.15395C10.9708 5.89089 10.36 5.7753 9.74989 5.81841C9.13982 5.86153 8.55132 6.0619 8.04168 6.4C7.60384 6.69277 7.23628 7.07887 6.9654 7.53058C6.69453 7.98228 6.52705 8.48837 6.47501 9.0125C6.42396 9.53319 6.48946 10.0587 6.66675 10.5509C6.84404 11.0432 7.12868 11.4898 7.50001 11.8583L9.70834 14.0708C9.74708 14.1099 9.79316 14.1409 9.84394 14.162C9.89471 14.1832 9.94917 14.1941 10.0042 14.1941C10.0592 14.1941 10.1136 14.1832 10.1644 14.162C10.2152 14.1409 10.2613 14.1099 10.3 14.0708L12.5 11.8583C12.8713 11.4898 13.156 11.0432 13.3333 10.5509C13.5106 10.0587 13.5761 9.53319 13.525 9.0125ZM11.9167 11.2708L10 13.1875L8.08334 11.2708C7.80088 10.9884 7.58451 10.6468 7.44979 10.2707C7.31507 9.89466 7.26534 9.49341 7.30418 9.09583C7.34327 8.69212 7.47158 8.30215 7.67983 7.9541C7.88809 7.60605 8.17108 7.30862 8.50834 7.08333C8.95041 6.78968 9.46931 6.63304 10 6.63304C10.5307 6.63304 11.0496 6.78968 11.4917 7.08333C11.8279 7.30775 12.1103 7.60386 12.3185 7.95039C12.5267 8.29691 12.6556 8.68525 12.6958 9.0875C12.736 9.48642 12.6868 9.88928 12.5521 10.2669C12.4173 10.6445 12.2003 10.9874 11.9167 11.2708ZM10 7.5C9.62917 7.5 9.26666 7.60996 8.95832 7.81599C8.64998 8.02202 8.40965 8.31485 8.26774 8.65746C8.12582 9.00008 8.08869 9.37708 8.16104 9.74079C8.23339 10.1045 8.41196 10.4386 8.67419 10.7008C8.93641 10.963 9.2705 11.1416 9.63422 11.214C9.99793 11.2863 10.3749 11.2492 10.7175 11.1073C11.0602 10.9654 11.353 10.725 11.559 10.4167C11.765 10.1083 11.875 9.74584 11.875 9.375C11.8739 8.87805 11.676 8.40178 11.3246 8.05039C10.9732 7.69899 10.497 7.5011 10 7.5ZM10 10.4167C9.79399 10.4167 9.59259 10.3556 9.42129 10.2411C9.24999 10.1267 9.11648 9.96396 9.03764 9.77363C8.9588 9.58329 8.93817 9.37384 8.97836 9.17178C9.01855 8.96971 9.11776 8.78411 9.26344 8.63843C9.40912 8.49275 9.59473 8.39354 9.79679 8.35334C9.99886 8.31315 10.2083 8.33378 10.3986 8.41262C10.589 8.49146 10.7517 8.62498 10.8661 8.79628C10.9806 8.96758 11.0417 9.16897 11.0417 9.375C11.0417 9.65126 10.9319 9.91622 10.7366 10.1116C10.5412 10.3069 10.2763 10.4167 10 10.4167Z" fill="#125EFF"/>
</svg>
