<svg width="20" height="20" viewBox="0 0 20 20" fill="none" xmlns="http://www.w3.org/2000/svg">
<rect width="20" height="20" rx="10" fill="white"/>
<path fill-rule="evenodd" clip-rule="evenodd" d="M6.92087 7.96433C6.97352 7.89922 7.05388 7.85714 7.14289 7.85714H12.8571C12.9462 7.85714 13.0265 7.89922 13.0792 7.96433L10 10.1197L6.92087 7.96433ZM6.00006 8.13522C5.99999 8.13952 5.99998 8.14383 6.00004 8.14814V12.4285C6.00004 13.0581 6.51334 13.5714 7.14289 13.5714H12.8571C13.4867 13.5714 14 13.0581 14 12.4285V8.14811C14.0001 8.14382 14 8.13954 14 8.13525M13.1429 8.96602V12.4285C13.1429 12.5847 13.0133 12.7143 12.8571 12.7143H7.14289C6.98673 12.7143 6.85718 12.5847 6.85718 12.4285V8.96602L9.75425 10.994C9.90181 11.0973 10.0982 11.0973 10.2458 10.994L13.1429 8.96602ZM14 8.13525C13.9959 7.50918 13.4842 7 12.8571 7H7.14289C6.51589 7 6.00419 7.50916 6.00006 8.13522" fill="#125EFF"/>
</svg>
