<svg width="20" height="20" viewBox="0 0 20 20" fill="none" xmlns="http://www.w3.org/2000/svg">
<rect width="20" height="20" rx="10" fill="white"/>
<path d="M13.1 10.4167C13.0083 10.4167 12.9125 10.3875 12.8208 10.3667C12.6352 10.3257 12.4528 10.2714 12.275 10.2042C12.0817 10.1338 11.8692 10.1375 11.6784 10.2144C11.4877 10.2913 11.3321 10.4361 11.2416 10.6208L11.15 10.8083C10.7441 10.5826 10.3712 10.3022 10.0416 9.97499C9.71447 9.64541 9.43407 9.27248 9.20831 8.86665L9.38331 8.74999C9.56805 8.65953 9.71281 8.50396 9.78973 8.31319C9.86665 8.12242 9.8703 7.90995 9.79998 7.71665C9.73382 7.53849 9.67954 7.35615 9.63748 7.17082C9.61665 7.07915 9.59998 6.98332 9.58748 6.88749C9.53688 6.59399 9.38316 6.32821 9.15399 6.138C8.92482 5.94779 8.63527 5.84566 8.33748 5.84999H7.08748C6.90791 5.8483 6.73009 5.88532 6.56611 5.95854C6.40213 6.03176 6.25586 6.13944 6.13724 6.27427C6.01863 6.4091 5.93045 6.5679 5.87873 6.73987C5.827 6.91183 5.81293 7.09293 5.83748 7.27082C6.05946 9.01639 6.85666 10.6383 8.10317 11.8803C9.34968 13.1222 10.9744 13.9135 12.7208 14.1292H12.8791C13.1864 14.1296 13.4831 14.0169 13.7125 13.8125C13.8443 13.6946 13.9496 13.5501 14.0214 13.3885C14.0933 13.2268 14.13 13.0518 14.1291 12.875V11.625C14.124 11.3356 14.0186 11.0569 13.831 10.8365C13.6433 10.6161 13.3849 10.4677 13.1 10.4167ZM13.3083 12.9167C13.3082 12.9758 13.2956 13.0343 13.2711 13.0882C13.2467 13.142 13.2111 13.1901 13.1666 13.2292C13.1201 13.2693 13.0656 13.2994 13.0068 13.3173C12.948 13.3353 12.886 13.3407 12.825 13.3333C11.2645 13.1332 9.81508 12.4194 8.70528 11.3043C7.59548 10.1892 6.88849 8.73638 6.69581 7.17499C6.68918 7.11395 6.69499 7.05221 6.7129 6.99348C6.7308 6.93476 6.76043 6.88027 6.79998 6.83332C6.83903 6.78887 6.88709 6.75325 6.94097 6.72883C6.99485 6.7044 7.05332 6.69173 7.11248 6.69165H8.36248C8.45938 6.6895 8.55399 6.72119 8.63004 6.78127C8.70609 6.84134 8.75882 6.92606 8.77915 7.02082C8.79581 7.13471 8.81665 7.24721 8.84165 7.35832C8.88978 7.57796 8.95384 7.79381 9.03331 8.00415L8.44998 8.27499C8.4001 8.29787 8.35524 8.33038 8.31796 8.37065C8.28069 8.41092 8.25173 8.45816 8.23276 8.50965C8.21379 8.56114 8.20518 8.61587 8.20742 8.6707C8.20966 8.72553 8.22271 8.77938 8.24581 8.82915C8.84548 10.1136 9.878 11.1462 11.1625 11.7458C11.2639 11.7875 11.3777 11.7875 11.4791 11.7458C11.5311 11.7272 11.5789 11.6985 11.6196 11.6613C11.6604 11.6241 11.6934 11.5792 11.7166 11.5292L11.975 10.9458C12.1904 11.0229 12.4102 11.0869 12.6333 11.1375C12.7444 11.1625 12.8569 11.1833 12.9708 11.2C13.0656 11.2203 13.1503 11.273 13.2104 11.3491C13.2704 11.4251 13.3021 11.5198 13.3 11.6167L13.3083 12.9167Z" fill="#125EFF"/>
</svg>
