<svg width="170" height="40" viewBox="0 0 170 40" fill="none" xmlns="http://www.w3.org/2000/svg">
<rect width="5" height="40" fill="#125EFF"/>
<path d="M23.7422 26V16.4844H20.3438V14.5469H29.4453V16.4844H26.0547V26H23.7422ZM29.2344 21.7344C29.2344 21.0052 29.4141 20.2995 29.7734 19.6172C30.1328 18.9349 30.6406 18.4141 31.2969 18.0547C31.9583 17.6953 32.6953 17.5156 33.5078 17.5156C34.763 17.5156 35.7917 17.9245 36.5938 18.7422C37.3958 19.5547 37.7969 20.5833 37.7969 21.8281C37.7969 23.0833 37.3906 24.125 36.5781 24.9531C35.7708 25.776 34.7526 26.1875 33.5234 26.1875C32.763 26.1875 32.0365 26.0156 31.3438 25.6719C30.6562 25.3281 30.1328 24.8255 29.7734 24.1641C29.4141 23.4974 29.2344 22.6875 29.2344 21.7344ZM31.4844 21.8516C31.4844 22.6745 31.6797 23.3047 32.0703 23.7422C32.4609 24.1797 32.9427 24.3984 33.5156 24.3984C34.0885 24.3984 34.5677 24.1797 34.9531 23.7422C35.3438 23.3047 35.5391 22.6693 35.5391 21.8359C35.5391 21.0234 35.3438 20.3984 34.9531 19.9609C34.5677 19.5234 34.0885 19.3047 33.5156 19.3047C32.9427 19.3047 32.4609 19.5234 32.0703 19.9609C31.6797 20.3984 31.4844 21.0286 31.4844 21.8516ZM39.0156 21.7344C39.0156 21.0052 39.1953 20.2995 39.5547 19.6172C39.9141 18.9349 40.4219 18.4141 41.0781 18.0547C41.7396 17.6953 42.4766 17.5156 43.2891 17.5156C44.5443 17.5156 45.5729 17.9245 46.375 18.7422C47.1771 19.5547 47.5781 20.5833 47.5781 21.8281C47.5781 23.0833 47.1719 24.125 46.3594 24.9531C45.5521 25.776 44.5339 26.1875 43.3047 26.1875C42.5443 26.1875 41.8177 26.0156 41.125 25.6719C40.4375 25.3281 39.9141 24.8255 39.5547 24.1641C39.1953 23.4974 39.0156 22.6875 39.0156 21.7344ZM41.2656 21.8516C41.2656 22.6745 41.4609 23.3047 41.8516 23.7422C42.2422 24.1797 42.724 24.3984 43.2969 24.3984C43.8698 24.3984 44.349 24.1797 44.7344 23.7422C45.125 23.3047 45.3203 22.6693 45.3203 21.8359C45.3203 21.0234 45.125 20.3984 44.7344 19.9609C44.349 19.5234 43.8698 19.3047 43.2969 19.3047C42.724 19.3047 42.2422 19.5234 41.8516 19.9609C41.4609 20.3984 41.2656 21.0286 41.2656 21.8516ZM49.3047 26V14.5469H51.5V26H49.3047ZM52.9844 23.6328L55.1875 23.2969C55.2812 23.724 55.4714 24.0495 55.7578 24.2734C56.0443 24.4922 56.4453 24.6016 56.9609 24.6016C57.5286 24.6016 57.9557 24.4974 58.2422 24.2891C58.4349 24.1432 58.5312 23.9479 58.5312 23.7031C58.5312 23.5365 58.4792 23.3984 58.375 23.2891C58.2656 23.1849 58.0208 23.0885 57.6406 23C55.8698 22.6094 54.7474 22.2526 54.2734 21.9297C53.6172 21.4818 53.2891 20.8594 53.2891 20.0625C53.2891 19.3438 53.5729 18.7396 54.1406 18.25C54.7083 17.7604 55.5885 17.5156 56.7812 17.5156C57.9167 17.5156 58.7604 17.7005 59.3125 18.0703C59.8646 18.4401 60.2448 18.987 60.4531 19.7109L58.3828 20.0938C58.2943 19.7708 58.125 19.5234 57.875 19.3516C57.6302 19.1797 57.2786 19.0938 56.8203 19.0938C56.2422 19.0938 55.8281 19.1745 55.5781 19.3359C55.4115 19.4505 55.3281 19.599 55.3281 19.7812C55.3281 19.9375 55.401 20.0703 55.5469 20.1797C55.7448 20.3255 56.4271 20.5312 57.5938 20.7969C58.7656 21.0625 59.5833 21.388 60.0469 21.7734C60.5052 22.1641 60.7344 22.7083 60.7344 23.4062C60.7344 24.1667 60.4167 24.8203 59.7812 25.3672C59.1458 25.9141 58.2057 26.1875 56.9609 26.1875C55.8307 26.1875 54.9349 25.9583 54.2734 25.5C53.6172 25.0417 53.1875 24.4193 52.9844 23.6328Z" fill="#125EFF"/>
</svg>
