<svg width="345" height="40" viewBox="0 0 345 40" fill="none" xmlns="http://www.w3.org/2000/svg">
<rect width="5" height="40" fill="#125EFF"/>
<path d="M23.7422 26V16.4844H20.3438V14.5469H29.4453V16.4844H26.0547V26H23.7422ZM29.2344 21.7344C29.2344 21.0052 29.4141 20.2995 29.7734 19.6172C30.1328 18.9349 30.6406 18.4141 31.2969 18.0547C31.9583 17.6953 32.6953 17.5156 33.5078 17.5156C34.763 17.5156 35.7917 17.9245 36.5938 18.7422C37.3958 19.5547 37.7969 20.5833 37.7969 21.8281C37.7969 23.0833 37.3906 24.125 36.5781 24.9531C35.7708 25.776 34.7526 26.1875 33.5234 26.1875C32.763 26.1875 32.0365 26.0156 31.3438 25.6719C30.6562 25.3281 30.1328 24.8255 29.7734 24.1641C29.4141 23.4974 29.2344 22.6875 29.2344 21.7344ZM31.4844 21.8516C31.4844 22.6745 31.6797 23.3047 32.0703 23.7422C32.4609 24.1797 32.9427 24.3984 33.5156 24.3984C34.0885 24.3984 34.5677 24.1797 34.9531 23.7422C35.3438 23.3047 35.5391 22.6693 35.5391 21.8359C35.5391 21.0234 35.3438 20.3984 34.9531 19.9609C34.5677 19.5234 34.0885 19.3047 33.5156 19.3047C32.9427 19.3047 32.4609 19.5234 32.0703 19.9609C31.6797 20.3984 31.4844 21.0286 31.4844 21.8516ZM39.4609 17.7031H41.5078V18.9219C41.7734 18.5052 42.1328 18.1667 42.5859 17.9062C43.0391 17.6458 43.5417 17.5156 44.0938 17.5156C45.0573 17.5156 45.875 17.8932 46.5469 18.6484C47.2188 19.4036 47.5547 20.4557 47.5547 21.8047C47.5547 23.1901 47.2161 24.2682 46.5391 25.0391C45.862 25.8047 45.0417 26.1875 44.0781 26.1875C43.6198 26.1875 43.2031 26.0964 42.8281 25.9141C42.4583 25.7318 42.0677 25.4193 41.6562 24.9766V29.1562H39.4609V17.7031ZM41.6328 21.7109C41.6328 22.6432 41.8177 23.3333 42.1875 23.7812C42.5573 24.224 43.0078 24.4453 43.5391 24.4453C44.0495 24.4453 44.474 24.2422 44.8125 23.8359C45.151 23.4245 45.3203 22.7526 45.3203 21.8203C45.3203 20.9505 45.1458 20.3047 44.7969 19.8828C44.4479 19.4609 44.0156 19.25 43.5 19.25C42.9635 19.25 42.5182 19.4583 42.1641 19.875C41.8099 20.2865 41.6328 20.8984 41.6328 21.7109ZM53.7734 26V14.5469H57.4844C58.8906 14.5469 59.8073 14.6042 60.2344 14.7188C60.8906 14.8906 61.4401 15.2656 61.8828 15.8438C62.3255 16.4167 62.5469 17.1589 62.5469 18.0703C62.5469 18.7734 62.4193 19.3646 62.1641 19.8438C61.9089 20.3229 61.5833 20.7005 61.1875 20.9766C60.7969 21.2474 60.3984 21.4271 59.9922 21.5156C59.4401 21.625 58.6406 21.6797 57.5938 21.6797H56.0859V26H53.7734ZM56.0859 16.4844V19.7344H57.3516C58.263 19.7344 58.8724 19.6745 59.1797 19.5547C59.487 19.4349 59.7266 19.2474 59.8984 18.9922C60.0755 18.737 60.1641 18.4401 60.1641 18.1016C60.1641 17.6849 60.0417 17.3411 59.7969 17.0703C59.5521 16.7995 59.2422 16.6302 58.8672 16.5625C58.5911 16.5104 58.0365 16.4844 57.2031 16.4844H56.0859ZM66.5312 26H64.3359V17.7031H66.375V18.8828C66.724 18.3255 67.0365 17.9583 67.3125 17.7812C67.5938 17.6042 67.9115 17.5156 68.2656 17.5156C68.7656 17.5156 69.2474 17.6536 69.7109 17.9297L69.0312 19.8438C68.6615 19.6042 68.3177 19.4844 68 19.4844C67.6927 19.4844 67.4323 19.5703 67.2188 19.7422C67.0052 19.9089 66.8359 20.2135 66.7109 20.6562C66.5911 21.099 66.5312 22.026 66.5312 23.4375V26ZM70.1562 21.7344C70.1562 21.0052 70.3359 20.2995 70.6953 19.6172C71.0547 18.9349 71.5625 18.4141 72.2188 18.0547C72.8802 17.6953 73.6172 17.5156 74.4297 17.5156C75.6849 17.5156 76.7135 17.9245 77.5156 18.7422C78.3177 19.5547 78.7188 20.5833 78.7188 21.8281C78.7188 23.0833 78.3125 24.125 77.5 24.9531C76.6927 25.776 75.6745 26.1875 74.4453 26.1875C73.6849 26.1875 72.9583 26.0156 72.2656 25.6719C71.5781 25.3281 71.0547 24.8255 70.6953 24.1641C70.3359 23.4974 70.1562 22.6875 70.1562 21.7344ZM72.4062 21.8516C72.4062 22.6745 72.6016 23.3047 72.9922 23.7422C73.3828 24.1797 73.8646 24.3984 74.4375 24.3984C75.0104 24.3984 75.4896 24.1797 75.875 23.7422C76.2656 23.3047 76.4609 22.6693 76.4609 21.8359C76.4609 21.0234 76.2656 20.3984 75.875 19.9609C75.4896 19.5234 75.0104 19.3047 74.4375 19.3047C73.8646 19.3047 73.3828 19.5234 72.9922 19.9609C72.6016 20.3984 72.4062 21.0286 72.4062 21.8516ZM80.3984 16.5781V14.5469H82.5938V16.5781H80.3984ZM82.5938 17.7031V25.7422C82.5938 26.7995 82.5234 27.5443 82.3828 27.9766C82.2474 28.4141 81.9818 28.7552 81.5859 29C81.1953 29.2448 80.6953 29.3672 80.0859 29.3672C79.8672 29.3672 79.6302 29.3464 79.375 29.3047C79.125 29.2682 78.8542 29.2109 78.5625 29.1328L78.9453 27.2578C79.0495 27.2786 79.1484 27.2943 79.2422 27.3047C79.3307 27.3203 79.4141 27.3281 79.4922 27.3281C79.7161 27.3281 79.8984 27.2786 80.0391 27.1797C80.1849 27.0859 80.2812 26.9714 80.3281 26.8359C80.375 26.7005 80.3984 26.2943 80.3984 25.6172V17.7031H82.5938ZM89.7031 23.3594L91.8906 23.7266C91.6094 24.5286 91.1641 25.1406 90.5547 25.5625C89.9505 25.9792 89.1927 26.1875 88.2812 26.1875C86.8385 26.1875 85.7708 25.7161 85.0781 24.7734C84.5312 24.0182 84.2578 23.0651 84.2578 21.9141C84.2578 20.5391 84.6172 19.4635 85.3359 18.6875C86.0547 17.9062 86.9635 17.5156 88.0625 17.5156C89.2969 17.5156 90.2708 17.9245 90.9844 18.7422C91.6979 19.5547 92.0391 20.8021 92.0078 22.4844H86.5078C86.5234 23.1354 86.7005 23.6432 87.0391 24.0078C87.3776 24.3672 87.7995 24.5469 88.3047 24.5469C88.6484 24.5469 88.9375 24.4531 89.1719 24.2656C89.4062 24.0781 89.5833 23.776 89.7031 23.3594ZM89.8281 21.1406C89.8125 20.5052 89.6484 20.0234 89.3359 19.6953C89.0234 19.362 88.6432 19.1953 88.1953 19.1953C87.7161 19.1953 87.3203 19.3698 87.0078 19.7188C86.6953 20.0677 86.5417 20.5417 86.5469 21.1406H89.8281ZM101.039 20.1562L98.875 20.5469C98.8021 20.1146 98.6354 19.7891 98.375 19.5703C98.1198 19.3516 97.7865 19.2422 97.375 19.2422C96.8281 19.2422 96.3906 19.4323 96.0625 19.8125C95.7396 20.1875 95.5781 20.8177 95.5781 21.7031C95.5781 22.6875 95.7422 23.3828 96.0703 23.7891C96.4036 24.1953 96.849 24.3984 97.4062 24.3984C97.8229 24.3984 98.1641 24.2812 98.4297 24.0469C98.6953 23.8073 98.8828 23.3984 98.9922 22.8203L101.148 23.1875C100.924 24.1771 100.495 24.9245 99.8594 25.4297C99.224 25.9349 98.3724 26.1875 97.3047 26.1875C96.0911 26.1875 95.1224 25.8047 94.3984 25.0391C93.6797 24.2734 93.3203 23.2135 93.3203 21.8594C93.3203 20.4896 93.6823 19.4245 94.4062 18.6641C95.1302 17.8984 96.1094 17.5156 97.3438 17.5156C98.3542 17.5156 99.1562 17.7344 99.75 18.1719C100.349 18.6042 100.779 19.2656 101.039 20.1562ZM106.516 17.7031V19.4531H105.016V22.7969C105.016 23.474 105.029 23.8698 105.055 23.9844C105.086 24.0938 105.151 24.1849 105.25 24.2578C105.354 24.3307 105.479 24.3672 105.625 24.3672C105.828 24.3672 106.122 24.2969 106.508 24.1562L106.695 25.8594C106.185 26.0781 105.607 26.1875 104.961 26.1875C104.565 26.1875 104.208 26.1224 103.891 25.9922C103.573 25.8568 103.339 25.6849 103.188 25.4766C103.042 25.263 102.94 24.9766 102.883 24.6172C102.836 24.362 102.812 23.8464 102.812 23.0703V19.4531H101.805V17.7031H102.812V16.0547L105.016 14.7734V17.7031H106.516ZM125.227 25.8516H126.891C126.37 26.9089 125.57 27.737 124.492 28.3359C123.258 29.0234 121.753 29.3672 119.977 29.3672C118.258 29.3672 116.773 29.0755 115.523 28.4922C114.273 27.9141 113.344 27.0599 112.734 25.9297C112.125 24.7943 111.82 23.5599 111.82 22.2266C111.82 20.763 112.167 19.401 112.859 18.1406C113.552 16.875 114.5 15.9271 115.703 15.2969C116.906 14.6615 118.281 14.3438 119.828 14.3438C121.141 14.3438 122.307 14.599 123.328 15.1094C124.349 15.6198 125.128 16.3464 125.664 17.2891C126.206 18.2266 126.477 19.2526 126.477 20.3672C126.477 21.6953 126.068 22.8958 125.25 23.9688C124.224 25.3229 122.909 26 121.305 26C120.872 26 120.547 25.9245 120.328 25.7734C120.109 25.6224 119.964 25.401 119.891 25.1094C119.276 25.7031 118.568 26 117.766 26C116.901 26 116.182 25.7031 115.609 25.1094C115.042 24.5104 114.758 23.7161 114.758 22.7266C114.758 21.5026 115.102 20.3854 115.789 19.375C116.622 18.1458 117.69 17.5312 118.992 17.5312C119.919 17.5312 120.604 17.8854 121.047 18.5938L121.242 17.7266H123.305L122.125 23.3281C122.052 23.6823 122.016 23.9115 122.016 24.0156C122.016 24.1458 122.044 24.2448 122.102 24.3125C122.164 24.375 122.237 24.4062 122.32 24.4062C122.57 24.4062 122.893 24.2552 123.289 23.9531C123.82 23.5573 124.25 23.026 124.578 22.3594C124.906 21.6927 125.07 21.0026 125.07 20.2891C125.07 19.0078 124.607 17.9375 123.68 17.0781C122.753 16.2135 121.458 15.7812 119.797 15.7812C118.385 15.7812 117.188 16.0703 116.203 16.6484C115.224 17.2214 114.484 18.0312 113.984 19.0781C113.49 20.1198 113.242 21.2057 113.242 22.3359C113.242 23.4349 113.518 24.4349 114.07 25.3359C114.628 26.237 115.406 26.8932 116.406 27.3047C117.411 27.7214 118.56 27.9297 119.852 27.9297C121.096 27.9297 122.167 27.7552 123.062 27.4062C123.958 27.0625 124.68 26.5443 125.227 25.8516ZM116.781 22.6406C116.781 23.3021 116.914 23.7891 117.18 24.1016C117.451 24.4141 117.784 24.5703 118.18 24.5703C118.477 24.5703 118.755 24.4974 119.016 24.3516C119.214 24.2474 119.409 24.0833 119.602 23.8594C119.878 23.5417 120.115 23.0781 120.312 22.4688C120.516 21.8594 120.617 21.2917 120.617 20.7656C120.617 20.1771 120.479 19.7266 120.203 19.4141C119.932 19.0964 119.589 18.9375 119.172 18.9375C118.724 18.9375 118.31 19.112 117.93 19.4609C117.549 19.8047 117.263 20.2969 117.07 20.9375C116.878 21.5781 116.781 22.1458 116.781 22.6406ZM139.898 21.7891L142.141 22.5C141.797 23.75 141.224 24.6797 140.422 25.2891C139.625 25.8932 138.612 26.1953 137.383 26.1953C135.862 26.1953 134.612 25.6771 133.633 24.6406C132.654 23.599 132.164 22.1771 132.164 20.375C132.164 18.4688 132.656 16.9896 133.641 15.9375C134.625 14.8802 135.919 14.3516 137.523 14.3516C138.924 14.3516 140.062 14.7656 140.938 15.5938C141.458 16.0833 141.849 16.7865 142.109 17.7031L139.82 18.25C139.685 17.6562 139.401 17.1875 138.969 16.8438C138.542 16.5 138.021 16.3281 137.406 16.3281C136.557 16.3281 135.867 16.6328 135.336 17.2422C134.81 17.8516 134.547 18.8385 134.547 20.2031C134.547 21.651 134.807 22.6823 135.328 23.2969C135.849 23.9115 136.526 24.2188 137.359 24.2188C137.974 24.2188 138.503 24.0234 138.945 23.6328C139.388 23.2422 139.706 22.6276 139.898 21.7891ZM145.758 20.2344L143.766 19.875C143.99 19.0729 144.375 18.4792 144.922 18.0938C145.469 17.7083 146.281 17.5156 147.359 17.5156C148.339 17.5156 149.068 17.6328 149.547 17.8672C150.026 18.0964 150.362 18.3906 150.555 18.75C150.753 19.1042 150.852 19.7578 150.852 20.7109L150.828 23.2734C150.828 24.0026 150.862 24.5417 150.93 24.8906C151.003 25.2344 151.135 25.6042 151.328 26H149.156C149.099 25.8542 149.029 25.638 148.945 25.3516C148.909 25.2214 148.883 25.1354 148.867 25.0938C148.492 25.4583 148.091 25.7318 147.664 25.9141C147.237 26.0964 146.781 26.1875 146.297 26.1875C145.443 26.1875 144.768 25.9557 144.273 25.4922C143.784 25.0286 143.539 24.4427 143.539 23.7344C143.539 23.2656 143.651 22.849 143.875 22.4844C144.099 22.1146 144.411 21.8333 144.812 21.6406C145.219 21.4427 145.802 21.2708 146.562 21.125C147.589 20.9323 148.299 20.7526 148.695 20.5859V20.3672C148.695 19.9453 148.591 19.6458 148.383 19.4688C148.174 19.2865 147.781 19.1953 147.203 19.1953C146.812 19.1953 146.508 19.2734 146.289 19.4297C146.07 19.5807 145.893 19.849 145.758 20.2344ZM148.695 22.0156C148.414 22.1094 147.969 22.2214 147.359 22.3516C146.75 22.4818 146.352 22.6094 146.164 22.7344C145.878 22.9375 145.734 23.1953 145.734 23.5078C145.734 23.8151 145.849 24.0807 146.078 24.3047C146.307 24.5286 146.599 24.6406 146.953 24.6406C147.349 24.6406 147.727 24.5104 148.086 24.25C148.352 24.0521 148.526 23.8099 148.609 23.5234C148.667 23.3359 148.695 22.9792 148.695 22.4531V22.0156ZM155.125 26H152.93V17.7031H154.969V18.8828C155.318 18.3255 155.63 17.9583 155.906 17.7812C156.188 17.6042 156.505 17.5156 156.859 17.5156C157.359 17.5156 157.841 17.6536 158.305 17.9297L157.625 19.8438C157.255 19.6042 156.911 19.4844 156.594 19.4844C156.286 19.4844 156.026 19.5703 155.812 19.7422C155.599 19.9089 155.43 20.2135 155.305 20.6562C155.185 21.099 155.125 22.026 155.125 23.4375V26ZM164.062 23.3594L166.25 23.7266C165.969 24.5286 165.523 25.1406 164.914 25.5625C164.31 25.9792 163.552 26.1875 162.641 26.1875C161.198 26.1875 160.13 25.7161 159.438 24.7734C158.891 24.0182 158.617 23.0651 158.617 21.9141C158.617 20.5391 158.977 19.4635 159.695 18.6875C160.414 17.9062 161.323 17.5156 162.422 17.5156C163.656 17.5156 164.63 17.9245 165.344 18.7422C166.057 19.5547 166.398 20.8021 166.367 22.4844H160.867C160.883 23.1354 161.06 23.6432 161.398 24.0078C161.737 24.3672 162.159 24.5469 162.664 24.5469C163.008 24.5469 163.297 24.4531 163.531 24.2656C163.766 24.0781 163.943 23.776 164.062 23.3594ZM164.188 21.1406C164.172 20.5052 164.008 20.0234 163.695 19.6953C163.383 19.362 163.003 19.1953 162.555 19.1953C162.076 19.1953 161.68 19.3698 161.367 19.7188C161.055 20.0677 160.901 20.5417 160.906 21.1406H164.188ZM168 17.7031H170.023V18.8359C170.747 17.9557 171.609 17.5156 172.609 17.5156C173.141 17.5156 173.602 17.625 173.992 17.8438C174.383 18.0625 174.703 18.3932 174.953 18.8359C175.318 18.3932 175.711 18.0625 176.133 17.8438C176.555 17.625 177.005 17.5156 177.484 17.5156C178.094 17.5156 178.609 17.6406 179.031 17.8906C179.453 18.1354 179.768 18.4974 179.977 18.9766C180.128 19.3307 180.203 19.9036 180.203 20.6953V26H178.008V21.2578C178.008 20.4349 177.932 19.9036 177.781 19.6641C177.578 19.3516 177.266 19.1953 176.844 19.1953C176.536 19.1953 176.247 19.2891 175.977 19.4766C175.706 19.6641 175.51 19.9401 175.391 20.3047C175.271 20.6641 175.211 21.2344 175.211 22.0156V26H173.016V21.4531C173.016 20.6458 172.977 20.125 172.898 19.8906C172.82 19.6562 172.698 19.4818 172.531 19.3672C172.37 19.2526 172.148 19.1953 171.867 19.1953C171.529 19.1953 171.224 19.2865 170.953 19.4688C170.682 19.651 170.487 19.9141 170.367 20.2578C170.253 20.6016 170.195 21.1719 170.195 21.9688V26H168V17.7031ZM187.203 23.3594L189.391 23.7266C189.109 24.5286 188.664 25.1406 188.055 25.5625C187.451 25.9792 186.693 26.1875 185.781 26.1875C184.339 26.1875 183.271 25.7161 182.578 24.7734C182.031 24.0182 181.758 23.0651 181.758 21.9141C181.758 20.5391 182.117 19.4635 182.836 18.6875C183.555 17.9062 184.464 17.5156 185.562 17.5156C186.797 17.5156 187.771 17.9245 188.484 18.7422C189.198 19.5547 189.539 20.8021 189.508 22.4844H184.008C184.023 23.1354 184.201 23.6432 184.539 24.0078C184.878 24.3672 185.299 24.5469 185.805 24.5469C186.148 24.5469 186.438 24.4531 186.672 24.2656C186.906 24.0781 187.083 23.776 187.203 23.3594ZM187.328 21.1406C187.312 20.5052 187.148 20.0234 186.836 19.6953C186.523 19.362 186.143 19.1953 185.695 19.1953C185.216 19.1953 184.82 19.3698 184.508 19.7188C184.195 20.0677 184.042 20.5417 184.047 21.1406H187.328ZM193.406 26H191.211V17.7031H193.25V18.8828C193.599 18.3255 193.911 17.9583 194.188 17.7812C194.469 17.6042 194.786 17.5156 195.141 17.5156C195.641 17.5156 196.122 17.6536 196.586 17.9297L195.906 19.8438C195.536 19.6042 195.193 19.4844 194.875 19.4844C194.568 19.4844 194.307 19.5703 194.094 19.7422C193.88 19.9089 193.711 20.2135 193.586 20.6562C193.466 21.099 193.406 22.026 193.406 23.4375V26ZM197.336 26.5469L199.844 26.8516C199.885 27.1432 199.982 27.3438 200.133 27.4531C200.341 27.6094 200.669 27.6875 201.117 27.6875C201.69 27.6875 202.12 27.6016 202.406 27.4297C202.599 27.3151 202.745 27.1302 202.844 26.875C202.911 26.6927 202.945 26.3568 202.945 25.8672V24.6562C202.289 25.5521 201.461 26 200.461 26C199.346 26 198.464 25.5286 197.812 24.5859C197.302 23.8411 197.047 22.9141 197.047 21.8047C197.047 20.4141 197.38 19.3516 198.047 18.6172C198.719 17.8828 199.552 17.5156 200.547 17.5156C201.573 17.5156 202.419 17.9661 203.086 18.8672V17.7031H205.141V25.1484C205.141 26.1276 205.06 26.8594 204.898 27.3438C204.737 27.8281 204.51 28.2083 204.219 28.4844C203.927 28.7604 203.536 28.9766 203.047 29.1328C202.562 29.2891 201.948 29.3672 201.203 29.3672C199.797 29.3672 198.799 29.125 198.211 28.6406C197.622 28.1615 197.328 27.5521 197.328 26.8125C197.328 26.7396 197.331 26.651 197.336 26.5469ZM199.297 21.6797C199.297 22.5599 199.466 23.2057 199.805 23.6172C200.148 24.0234 200.57 24.2266 201.07 24.2266C201.607 24.2266 202.06 24.0182 202.43 23.6016C202.799 23.1797 202.984 22.5573 202.984 21.7344C202.984 20.875 202.807 20.237 202.453 19.8203C202.099 19.4036 201.651 19.1953 201.109 19.1953C200.583 19.1953 200.148 19.401 199.805 19.8125C199.466 20.2188 199.297 20.8411 199.297 21.6797ZM212.125 23.3594L214.312 23.7266C214.031 24.5286 213.586 25.1406 212.977 25.5625C212.372 25.9792 211.615 26.1875 210.703 26.1875C209.26 26.1875 208.193 25.7161 207.5 24.7734C206.953 24.0182 206.68 23.0651 206.68 21.9141C206.68 20.5391 207.039 19.4635 207.758 18.6875C208.477 17.9062 209.385 17.5156 210.484 17.5156C211.719 17.5156 212.693 17.9245 213.406 18.7422C214.12 19.5547 214.461 20.8021 214.43 22.4844H208.93C208.945 23.1354 209.122 23.6432 209.461 24.0078C209.799 24.3672 210.221 24.5469 210.727 24.5469C211.07 24.5469 211.359 24.4531 211.594 24.2656C211.828 24.0781 212.005 23.776 212.125 23.3594ZM212.25 21.1406C212.234 20.5052 212.07 20.0234 211.758 19.6953C211.445 19.362 211.065 19.1953 210.617 19.1953C210.138 19.1953 209.742 19.3698 209.43 19.7188C209.117 20.0677 208.964 20.5417 208.969 21.1406H212.25Z" fill="#125EFF"/>
</svg>
